# xmcd CD database file
#
# Track frame offsets:
#	150
#	19687
#	37987
#	53165
#	67007
#	86689
#	104532
#	119561
#	135415
#	152751
#	172313
#	194734
#	214505
#
# Disc length: 3011 seconds
#
# Revision: 0
# Processed by: cddbd v1.5.2PL0 Copyright (c) Steve Scherf et al.
# Submitted via: CDex 1.51
#
DISCID=bc0bc10d
DTITLE=Josh Grider - Million Miles To Go
DYEAR=2007
DGENRE=Country
TTITLE0=Stumbling On The Edge Of Greatness
TTITLE1=Poorer Days
TTITLE2=Crazy Like You (featuring the Mystiqueros)
TTITLE3=Hand To Hold
TTITLE4=Rusty Cowboy
TTITLE5=Probably Will
TTITLE6=Travis Blues
TTITLE7=Emma
TTITLE8=Love Went Wrong
TTITLE9=Tragic Circumstance
TTITLE10=Broken On Broadway
TTITLE11=Million Miles To Go
TTITLE12=If I were a Carpenter (Hidden Track)
EXTD=YEAR: 2007
EXTT0=
EXTT1=
EXTT2=
EXTT3=
EXTT4=
EXTT5=
EXTT6=
EXTT7=
EXTT8=
EXTT9=
EXTT10=
EXTT11=
EXTT12=
PLAYORDER=
